<mxfile host="app.diagrams.net" modified="2021-12-22T02:51:13.310Z" agent="5.0 (X11; Linux x86_64) AppleWebKit/537.36 (KHTML, like Gecko) Chrome/94.0.4606.54 Safari/537.36" etag="DfXs8aZL6HfEnW8DDz1v" version="15.7.3" type="github">
  <diagram id="pGuTLuSf7zO8LySMDt3V" name="Page-1">
    <mxGraphModel dx="1368" dy="773" grid="1" gridSize="10" guides="1" tooltips="1" connect="1" arrows="1" fold="1" page="1" pageScale="1" pageWidth="827" pageHeight="1169" math="0" shadow="0">
      <root>
        <mxCell id="0" />
        <mxCell id="1" parent="0" />
        <mxCell id="fc2CoSjSoIJuO16lAo9E-1" value="" style="rounded=0;whiteSpace=wrap;html=1;" parent="1" vertex="1">
          <mxGeometry x="50" y="260" width="140" height="260" as="geometry" />
        </mxCell>
        <mxCell id="fc2CoSjSoIJuO16lAo9E-9" value="" style="endArrow=none;html=1;rounded=0;exitX=-0.014;exitY=0.385;exitDx=0;exitDy=0;exitPerimeter=0;" parent="1" edge="1">
          <mxGeometry width="50" height="50" relative="1" as="geometry">
            <mxPoint x="48.039999999999964" y="290.0999999999999" as="sourcePoint" />
            <mxPoint x="190" y="290" as="targetPoint" />
          </mxGeometry>
        </mxCell>
        <mxCell id="fc2CoSjSoIJuO16lAo9E-10" value="" style="endArrow=none;html=1;rounded=0;exitX=-0.014;exitY=0.385;exitDx=0;exitDy=0;exitPerimeter=0;" parent="1" edge="1">
          <mxGeometry width="50" height="50" relative="1" as="geometry">
            <mxPoint x="48.039999999999964" y="330.0999999999999" as="sourcePoint" />
            <mxPoint x="190" y="330" as="targetPoint" />
          </mxGeometry>
        </mxCell>
        <mxCell id="fc2CoSjSoIJuO16lAo9E-11" value="" style="endArrow=none;html=1;rounded=0;exitX=-0.014;exitY=0.385;exitDx=0;exitDy=0;exitPerimeter=0;" parent="1" edge="1">
          <mxGeometry width="50" height="50" relative="1" as="geometry">
            <mxPoint x="50" y="410.0999999999999" as="sourcePoint" />
            <mxPoint x="191.96000000000004" y="410" as="targetPoint" />
          </mxGeometry>
        </mxCell>
        <mxCell id="fc2CoSjSoIJuO16lAo9E-12" value="" style="endArrow=none;html=1;rounded=0;exitX=-0.014;exitY=0.385;exitDx=0;exitDy=0;exitPerimeter=0;" parent="1" edge="1">
          <mxGeometry width="50" height="50" relative="1" as="geometry">
            <mxPoint x="50" y="450.0999999999999" as="sourcePoint" />
            <mxPoint x="191.96000000000004" y="450" as="targetPoint" />
          </mxGeometry>
        </mxCell>
        <mxCell id="fc2CoSjSoIJuO16lAo9E-13" value="" style="endArrow=none;html=1;rounded=0;exitX=-0.014;exitY=0.385;exitDx=0;exitDy=0;exitPerimeter=0;" parent="1" edge="1">
          <mxGeometry width="50" height="50" relative="1" as="geometry">
            <mxPoint x="49.019999999999996" y="490.0999999999999" as="sourcePoint" />
            <mxPoint x="190.98000000000002" y="490" as="targetPoint" />
          </mxGeometry>
        </mxCell>
        <mxCell id="fc2CoSjSoIJuO16lAo9E-14" value="" style="endArrow=none;html=1;rounded=0;exitX=-0.014;exitY=0.385;exitDx=0;exitDy=0;exitPerimeter=0;" parent="1" edge="1">
          <mxGeometry width="50" height="50" relative="1" as="geometry">
            <mxPoint x="49.02" y="370.0999999999999" as="sourcePoint" />
            <mxPoint x="190.98000000000005" y="370" as="targetPoint" />
            <Array as="points">
              <mxPoint x="109.02" y="370" />
            </Array>
          </mxGeometry>
        </mxCell>
        <mxCell id="fc2CoSjSoIJuO16lAo9E-15" value="11/15 出欠状況" style="text;html=1;resizable=0;autosize=1;align=center;verticalAlign=middle;points=[];fillColor=none;strokeColor=none;rounded=0;" parent="1" vertex="1">
          <mxGeometry x="50" y="270" width="100" height="20" as="geometry" />
        </mxCell>
        <mxCell id="fc2CoSjSoIJuO16lAo9E-16" value="　　Aさん　　　欠席" style="text;html=1;resizable=0;autosize=1;align=center;verticalAlign=middle;points=[];fillColor=none;strokeColor=none;rounded=0;" parent="1" vertex="1">
          <mxGeometry x="55" y="300" width="130" height="20" as="geometry" />
        </mxCell>
        <mxCell id="fc2CoSjSoIJuO16lAo9E-17" value="　　Bさん　　　欠席" style="text;html=1;resizable=0;autosize=1;align=center;verticalAlign=middle;points=[];fillColor=none;strokeColor=none;rounded=0;" parent="1" vertex="1">
          <mxGeometry x="55" y="340" width="130" height="20" as="geometry" />
        </mxCell>
        <mxCell id="fc2CoSjSoIJuO16lAo9E-18" value="　　Cさん　　　出席" style="text;html=1;resizable=0;autosize=1;align=center;verticalAlign=middle;points=[];fillColor=none;strokeColor=none;rounded=0;" parent="1" vertex="1">
          <mxGeometry x="55" y="380" width="130" height="20" as="geometry" />
        </mxCell>
        <mxCell id="fc2CoSjSoIJuO16lAo9E-19" value="　　Dさん　　　欠席" style="text;html=1;resizable=0;autosize=1;align=center;verticalAlign=middle;points=[];fillColor=none;strokeColor=none;rounded=0;" parent="1" vertex="1">
          <mxGeometry x="55" y="420" width="130" height="20" as="geometry" />
        </mxCell>
        <mxCell id="fc2CoSjSoIJuO16lAo9E-20" value="　　Eさん　　　出席" style="text;html=1;resizable=0;autosize=1;align=center;verticalAlign=middle;points=[];fillColor=none;strokeColor=none;rounded=0;" parent="1" vertex="1">
          <mxGeometry x="55" y="460" width="130" height="20" as="geometry" />
        </mxCell>
        <mxCell id="fc2CoSjSoIJuO16lAo9E-22" value="カレンダー" style="ellipse;whiteSpace=wrap;html=1;" parent="1" vertex="1">
          <mxGeometry x="145" y="250" width="50" height="40" as="geometry" />
        </mxCell>
        <mxCell id="fc2CoSjSoIJuO16lAo9E-23" value="" style="shape=flexArrow;endArrow=classic;html=1;rounded=0;" parent="1" edge="1">
          <mxGeometry width="50" height="50" relative="1" as="geometry">
            <mxPoint x="200" y="269.5" as="sourcePoint" />
            <mxPoint x="280" y="269.5" as="targetPoint" />
          </mxGeometry>
        </mxCell>
        <mxCell id="fc2CoSjSoIJuO16lAo9E-24" value="クリック" style="text;html=1;resizable=0;autosize=1;align=center;verticalAlign=middle;points=[];fillColor=none;strokeColor=none;rounded=0;" parent="1" vertex="1">
          <mxGeometry x="200" y="240" width="60" height="20" as="geometry" />
        </mxCell>
        <mxCell id="fc2CoSjSoIJuO16lAo9E-25" value="" style="rounded=0;whiteSpace=wrap;html=1;" parent="1" vertex="1">
          <mxGeometry x="290" y="260" width="140" height="260" as="geometry" />
        </mxCell>
        <mxCell id="fc2CoSjSoIJuO16lAo9E-26" value="カレンダーから&lt;br&gt;日付を選択" style="text;html=1;resizable=0;autosize=1;align=center;verticalAlign=middle;points=[];fillColor=none;strokeColor=none;rounded=0;fontSize=20;" parent="1" vertex="1">
          <mxGeometry x="280" y="365" width="160" height="50" as="geometry" />
        </mxCell>
        <mxCell id="fc2CoSjSoIJuO16lAo9E-27" value="" style="rounded=0;whiteSpace=wrap;html=1;" parent="1" vertex="1">
          <mxGeometry x="515" y="260" width="140" height="260" as="geometry" />
        </mxCell>
        <mxCell id="fc2CoSjSoIJuO16lAo9E-28" value="" style="endArrow=none;html=1;rounded=0;exitX=-0.014;exitY=0.385;exitDx=0;exitDy=0;exitPerimeter=0;" parent="1" edge="1">
          <mxGeometry width="50" height="50" relative="1" as="geometry">
            <mxPoint x="513.04" y="290.0999999999999" as="sourcePoint" />
            <mxPoint x="655" y="290" as="targetPoint" />
          </mxGeometry>
        </mxCell>
        <mxCell id="fc2CoSjSoIJuO16lAo9E-29" value="" style="endArrow=none;html=1;rounded=0;exitX=-0.014;exitY=0.385;exitDx=0;exitDy=0;exitPerimeter=0;" parent="1" edge="1">
          <mxGeometry width="50" height="50" relative="1" as="geometry">
            <mxPoint x="513.04" y="330.0999999999999" as="sourcePoint" />
            <mxPoint x="655" y="330" as="targetPoint" />
          </mxGeometry>
        </mxCell>
        <mxCell id="fc2CoSjSoIJuO16lAo9E-30" value="" style="endArrow=none;html=1;rounded=0;exitX=-0.014;exitY=0.385;exitDx=0;exitDy=0;exitPerimeter=0;" parent="1" edge="1">
          <mxGeometry width="50" height="50" relative="1" as="geometry">
            <mxPoint x="515" y="410.0999999999999" as="sourcePoint" />
            <mxPoint x="656.96" y="410" as="targetPoint" />
          </mxGeometry>
        </mxCell>
        <mxCell id="fc2CoSjSoIJuO16lAo9E-31" value="" style="endArrow=none;html=1;rounded=0;exitX=-0.014;exitY=0.385;exitDx=0;exitDy=0;exitPerimeter=0;" parent="1" edge="1">
          <mxGeometry width="50" height="50" relative="1" as="geometry">
            <mxPoint x="515" y="450.0999999999999" as="sourcePoint" />
            <mxPoint x="656.96" y="450" as="targetPoint" />
          </mxGeometry>
        </mxCell>
        <mxCell id="fc2CoSjSoIJuO16lAo9E-32" value="" style="endArrow=none;html=1;rounded=0;exitX=-0.014;exitY=0.385;exitDx=0;exitDy=0;exitPerimeter=0;" parent="1" edge="1">
          <mxGeometry width="50" height="50" relative="1" as="geometry">
            <mxPoint x="514.02" y="490.0999999999999" as="sourcePoint" />
            <mxPoint x="655.98" y="490" as="targetPoint" />
          </mxGeometry>
        </mxCell>
        <mxCell id="fc2CoSjSoIJuO16lAo9E-33" value="" style="endArrow=none;html=1;rounded=0;exitX=-0.014;exitY=0.385;exitDx=0;exitDy=0;exitPerimeter=0;" parent="1" edge="1">
          <mxGeometry width="50" height="50" relative="1" as="geometry">
            <mxPoint x="514.02" y="370.0999999999999" as="sourcePoint" />
            <mxPoint x="655.98" y="370" as="targetPoint" />
            <Array as="points">
              <mxPoint x="574.02" y="370" />
            </Array>
          </mxGeometry>
        </mxCell>
        <mxCell id="fc2CoSjSoIJuO16lAo9E-34" value="11/1 出欠状況" style="text;html=1;resizable=0;autosize=1;align=center;verticalAlign=middle;points=[];fillColor=none;strokeColor=none;rounded=0;" parent="1" vertex="1">
          <mxGeometry x="520" y="270" width="90" height="20" as="geometry" />
        </mxCell>
        <mxCell id="fc2CoSjSoIJuO16lAo9E-35" value="　　Aさん　　　出席" style="text;html=1;resizable=0;autosize=1;align=center;verticalAlign=middle;points=[];fillColor=none;strokeColor=none;rounded=0;" parent="1" vertex="1">
          <mxGeometry x="520" y="300" width="130" height="20" as="geometry" />
        </mxCell>
        <mxCell id="fc2CoSjSoIJuO16lAo9E-36" value="　　Bさん　　　出席" style="text;html=1;resizable=0;autosize=1;align=center;verticalAlign=middle;points=[];fillColor=none;strokeColor=none;rounded=0;" parent="1" vertex="1">
          <mxGeometry x="520" y="340" width="130" height="20" as="geometry" />
        </mxCell>
        <mxCell id="fc2CoSjSoIJuO16lAo9E-37" value="　　Cさん　　　出席" style="text;html=1;resizable=0;autosize=1;align=center;verticalAlign=middle;points=[];fillColor=none;strokeColor=none;rounded=0;" parent="1" vertex="1">
          <mxGeometry x="520" y="380" width="130" height="20" as="geometry" />
        </mxCell>
        <mxCell id="fc2CoSjSoIJuO16lAo9E-38" value="　　Dさん　　　出席" style="text;html=1;resizable=0;autosize=1;align=center;verticalAlign=middle;points=[];fillColor=none;strokeColor=none;rounded=0;" parent="1" vertex="1">
          <mxGeometry x="520" y="420" width="130" height="20" as="geometry" />
        </mxCell>
        <mxCell id="fc2CoSjSoIJuO16lAo9E-39" value="　　Eさん　　　出席" style="text;html=1;resizable=0;autosize=1;align=center;verticalAlign=middle;points=[];fillColor=none;strokeColor=none;rounded=0;" parent="1" vertex="1">
          <mxGeometry x="520" y="460" width="130" height="20" as="geometry" />
        </mxCell>
        <mxCell id="fc2CoSjSoIJuO16lAo9E-40" value="カレンダー" style="ellipse;whiteSpace=wrap;html=1;" parent="1" vertex="1">
          <mxGeometry x="610" y="250" width="50" height="40" as="geometry" />
        </mxCell>
        <mxCell id="fc2CoSjSoIJuO16lAo9E-41" value="" style="shape=flexArrow;endArrow=classic;html=1;rounded=0;" parent="1" edge="1">
          <mxGeometry width="50" height="50" relative="1" as="geometry">
            <mxPoint x="435" y="270" as="sourcePoint" />
            <mxPoint x="515" y="270" as="targetPoint" />
          </mxGeometry>
        </mxCell>
        <mxCell id="fc2CoSjSoIJuO16lAo9E-42" value="11/1日選択" style="text;html=1;resizable=0;autosize=1;align=center;verticalAlign=middle;points=[];fillColor=none;strokeColor=none;rounded=0;" parent="1" vertex="1">
          <mxGeometry x="430" y="240" width="70" height="20" as="geometry" />
        </mxCell>
        <mxCell id="iOZ7oJLdCB7IIF4hDFtq-1" value="" style="rounded=0;whiteSpace=wrap;html=1;" parent="1" vertex="1">
          <mxGeometry x="210" y="20" width="320" height="200" as="geometry" />
        </mxCell>
        <mxCell id="iOZ7oJLdCB7IIF4hDFtq-2" value="&lt;span style=&quot;white-space: pre&quot;&gt; &lt;/span&gt;{&lt;br&gt;&lt;span style=&quot;white-space: pre&quot;&gt; &lt;/span&gt;&lt;br&gt;&lt;span style=&quot;white-space: pre&quot;&gt; &lt;/span&gt;&lt;span style=&quot;white-space: pre&quot;&gt; &lt;/span&gt;&lt;span style=&quot;white-space: pre&quot;&gt; &lt;/span&gt;&amp;nbsp;&lt;span style=&quot;white-space: pre&quot;&gt; &lt;span style=&quot;white-space: pre&quot;&gt; &lt;/span&gt;   &lt;span style=&quot;white-space: pre&quot;&gt; &lt;/span&gt;&lt;span style=&quot;white-space: pre&quot;&gt; &lt;span style=&quot;white-space: pre&quot;&gt;	&lt;/span&gt;  &lt;/span&gt;&lt;/span&gt;name:Aさん&lt;br&gt;&lt;span style=&quot;white-space: pre&quot;&gt; &lt;/span&gt;&lt;span style=&quot;white-space: pre&quot;&gt; &lt;/span&gt;&lt;span style=&quot;white-space: pre&quot;&gt; &amp;nbsp;&lt;/span&gt;&amp;nbsp; &amp;nbsp; &amp;nbsp;&lt;span style=&quot;white-space: pre&quot;&gt; &lt;/span&gt;&amp;nbsp; &amp;nbsp; &amp;nbsp; &amp;nbsp;status:出席&lt;br&gt;&lt;span style=&quot;white-space: pre&quot;&gt; &lt;/span&gt;&lt;br&gt;&lt;span style=&quot;white-space: pre&quot;&gt; &amp;nbsp;&lt;/span&gt;&amp;nbsp; &amp;nbsp;&amp;nbsp;&lt;span style=&quot;white-space: pre&quot;&gt; &lt;/span&gt;&amp;nbsp; &amp;nbsp; &lt;span style=&quot;white-space: pre&quot;&gt; &lt;/span&gt;&lt;span style=&quot;white-space: pre&quot;&gt; &lt;span style=&quot;white-space: pre&quot;&gt; &lt;/span&gt;&lt;span style=&quot;white-space: pre&quot;&gt;     &lt;/span&gt;&lt;/span&gt;name:Bさん&lt;br&gt;&lt;span style=&quot;white-space: pre&quot;&gt; &lt;/span&gt;&lt;span style=&quot;white-space: pre&quot;&gt; &lt;/span&gt;&lt;span style=&quot;white-space: pre&quot;&gt; &lt;/span&gt;&amp;nbsp; &amp;nbsp; &amp;nbsp; &lt;span style=&quot;white-space: pre&quot;&gt; &lt;/span&gt;&amp;nbsp; &amp;nbsp; &amp;nbsp; &amp;nbsp;status:欠席&lt;br&gt;&lt;span style=&quot;white-space: pre&quot;&gt; &lt;/span&gt;&lt;br&gt;&lt;span style=&quot;white-space: pre&quot;&gt; &lt;/span&gt;}" style="text;html=1;resizable=0;autosize=1;align=center;verticalAlign=middle;points=[];fillColor=none;strokeColor=none;rounded=0;rotation=0;" parent="1" vertex="1">
          <mxGeometry x="249" y="55" width="140" height="130" as="geometry" />
        </mxCell>
        <mxCell id="iOZ7oJLdCB7IIF4hDFtq-4" value="json" style="text;html=1;resizable=0;autosize=1;align=center;verticalAlign=middle;points=[];fillColor=none;strokeColor=none;rounded=0;" parent="1" vertex="1">
          <mxGeometry x="210" y="20" width="40" height="20" as="geometry" />
        </mxCell>
      </root>
    </mxGraphModel>
  </diagram>
</mxfile>
